<?xml version="1.0" encoding="utf-8"?>
<!-- Generator: Adobe Illustrator 26.2.1, SVG Export Plug-In . SVG Version: 6.00 Build 0)  -->
<svg version="1.1" id="Layer_1" xmlns="http://www.w3.org/2000/svg" xmlns:xlink="http://www.w3.org/1999/xlink" x="0px" y="0px"
	 viewBox="0 0 908.9 392.9" style="enable-background:new 0 0 908.9 392.9;" xml:space="preserve">
<g>
	<g>
		<g>
			<path d="M463.8,144.3c3.4,1.6,6.1,3.8,8,6.6c1.9,2.9,2.8,6.2,2.8,10.2c0,3.9-0.9,7.2-2.8,10.1s-4.5,5.1-8,6.6s-7.5,2.3-12.2,2.3
				H441v14.5h-12.2V142h22.8C456.3,142,460.4,142.8,463.8,144.3z M459.3,167.9c1.9-1.6,2.9-3.8,2.9-6.7c0-3-1-5.2-2.9-6.8
				c-1.9-1.6-4.7-2.4-8.4-2.4H441v18.3h9.9C454.6,170.3,457.4,169.5,459.3,167.9z"/>
			<path d="M505.3,192.1c-4.4-2.4-7.8-5.6-10.3-9.8c-2.5-4.1-3.7-8.8-3.7-14c0-5.2,1.2-9.8,3.7-14c2.5-4.1,5.9-7.4,10.3-9.8
				s9.3-3.5,14.8-3.5s10.4,1.2,14.8,3.5s7.8,5.6,10.3,9.8c2.5,4.1,3.8,8.8,3.8,14s-1.3,9.8-3.8,14c-2.5,4.1-6,7.4-10.3,9.8
				s-9.3,3.5-14.8,3.5C514.6,195.6,509.6,194.5,505.3,192.1z M528.5,183.1c2.5-1.4,4.5-3.4,5.9-6c1.4-2.6,2.2-5.5,2.2-8.7
				c0-3.3-0.7-6.2-2.2-8.7c-1.4-2.6-3.4-4.6-5.9-6c-2.5-1.4-5.3-2.1-8.4-2.1s-5.9,0.7-8.4,2.1s-4.5,3.4-5.9,6
				c-1.4,2.6-2.1,5.5-2.1,8.7s0.7,6.2,2.1,8.7c1.4,2.6,3.4,4.6,5.9,6c2.5,1.4,5.3,2.1,8.4,2.1S526,184.5,528.5,183.1z"/>
			<path d="M646.6,142l-17.2,52.7h-13.1L604.7,159l-12,35.7h-13L562.3,142H575l11.9,37.1l12.4-37.1h11.3l12,37.4l12.3-37.4H646.6z"
				/>
			<path d="M704.8,184.9v9.8H664V142h39.8v9.8h-27.7v11.4h24.5v9.5h-24.5v12.2L704.8,184.9L704.8,184.9z"/>
			<path d="M758.7,194.7l-10.2-14.7h-0.6h-10.6v14.7h-12.2V142h22.8c4.7,0,8.7,0.8,12.2,2.3s6.1,3.8,8,6.6c1.9,2.9,2.8,6.2,2.8,10.2
				s-0.9,7.3-2.8,10.1c-1.9,2.8-4.6,5-8,6.5l11.8,16.9H758.7z M755.6,154.3c-1.9-1.6-4.7-2.4-8.4-2.4h-9.9v18.4h9.9
				c3.7,0,6.5-0.8,8.4-2.4s2.9-3.9,2.9-6.8C758.4,158.2,757.5,155.9,755.6,154.3z"/>
			<path d="M831.8,184.9v9.8H791V142h39.8v9.8h-27.7v11.4h24.5v9.5h-24.5v12.2L831.8,184.9L831.8,184.9z"/>
			<path d="M852.1,142h24c5.7,0,10.8,1.1,15.2,3.3c4.4,2.2,7.8,5.3,10.2,9.2c2.4,4,3.7,8.6,3.7,13.9c0,5.3-1.2,9.9-3.7,13.9
				c-2.4,4-5.8,7-10.2,9.2c-4.4,2.2-9.5,3.3-15.2,3.3h-24V142z M875.4,184.7c5.3,0,9.5-1.5,12.6-4.4c3.1-2.9,4.7-6.9,4.7-11.9
				s-1.6-9-4.7-11.9s-7.3-4.4-12.6-4.4h-11.2v32.7L875.4,184.7L875.4,184.7z"/>
		</g>
	</g>
	<g>
		<g>
			<path d="M627.3,290l2.4,7.2h-22.9l2.4-7.2v-24.3l-1.4-1.4l-12.5,3l-1.2,1.2V290l2.4,7.2h-22.9l2.4-7.2v-55.9l-2.4-7.3h22.8
				l-2.4,7.3v15.4l1.4,1.4l12.4-3l1.4-1.4v-12.5l-2.4-7.3h22.9l-2.4,7.3L627.3,290L627.3,290z"/>
			<path d="M679.2,269.5V290l2.4,7.2h-24.9l2.4-7.2v-20.5l-17.6-36.7l-5.8-5.9h27.4l-2,6.1l7.5,16.2l0.7,2.8h0.5l0.8-2.8l7.3-16.2
				l-2-6.1h27.4l-5.8,5.9L679.2,269.5z"/>
			<path d="M765.2,237.8v48.4l-3.8,6.9l-7,4h-45.1l2.4-7.2v-55.9l-2.4-7.3h45.1l7,4L765.2,237.8z M731.1,280.2h10.5l3.4-2l2-3.5
				v-25.3l-2-3.5l-3.4-2h-10.5l-1.4,1.4l0.1,33.7L731.1,280.2z"/>
			<path d="M838.1,297.2h-24.2l2.1-6.2l-7.5-17.4l-9.6,2.3l-1.3,1.3V290l2.4,7.2h-22.9l2.4-7.2v-55.9l-2.4-7.3h45.5l6.9,4l3.8,7
				v19.4l-3.5,6.9l-5.8,3.7l9.8,22.4L838.1,297.2z M799,242.1l-1.4,1.4v15.7l1.4,1.4l9.5-2.4l3.4-2l2-3.5v-5.4l-2-3.5l-3.1-1.8H799z
				"/>
			<path d="M908.9,297.2h-24.8l2.3-7l-1.8-8.6l-1.3-1.3l-15.1,3.7l-1.3,1.3l-1,5l2.3,7h-24.8l4.4-7l12-56.3l-2.3-7.1h37.4l-2.3,7.1
				l11.9,56.3L908.9,297.2z M875.8,243.7l-4.9,22.5l1.4,1.4l7.8-1.9l0.9-0.9l-4.4-21.1H875.8z"/>
		</g>
	</g>
	<path d="M329.6,263.2c4.8-4.6,12-5.8,12.1-5.8l10.5-1.7l-10.3-2.9c-0.2-0.1-3.8-1-8.9-0.9c7-16.6,4-31.5,3.9-32.1
		c-2.9-16.1-10.7-28.6-23.4-37c-16.5-10.9-38.4-12.9-53.8-12.6c-16.6,0.3-29.1,3.2-29.6,3.3l-11.9,2.4c3.1-4.6,5.5-9.7,6.7-15.3
		l1.9-8.5l0.1-0.3c0.9-10.6,3.9-22.4,8-31.4c3.6-8.1,9.9-18.2,19.3-20.3c12.6-2.8,24.5,1.2,31,10.4c0.2,0.3,0.5,0.7,0.7,1
		c5.1,7.6,7.1,17,5.8,26.5l-1.1,7.8c-0.4,2.9-2.1,5.5-4.5,7.2l-5.3,3.5l15.5,2c3.2,0.4,6.3-1.3,7.7-4.2l4-8.7c0.2-0.4,0.4-0.7,0.8-1
		l6-4.8c1.5-1.2,2.5-3,2.7-5l1.7-15.7c1.5-19.4,10.6-26.4,10.7-26.5l5.5-4l-6.8-0.3c-0.5,0-10.9-0.3-19.3,6.8
		c-1.6-6.4,0.9-13.3,0.9-13.4l3.7-10l-7.6,7.5c-0.1,0.1-2.7,2.7-5.2,7.2c-11-14.3-25.4-19.1-26-19.3c-15.4-5.5-30.1-4.8-43.7,2
		c-17.7,8.9-30.2,26.9-37.6,40.5c-7.9,14.6-11.7,26.9-11.8,27.3l-4.3,12.9c-2-6.7-5.5-12.9-10.4-18l-6.1-6.3l-0.2-0.2
		c-8.3-6.7-16.5-15.6-21.8-24c-4.8-7.5-9.7-18.3-6.3-27.3c4.6-12,14.5-19.8,25.8-20.1c0.4,0,0.9,0,1.3,0c9.1,0,18.1,3.5,25.2,9.8
		l5.9,5.2c2.2,2,3.5,4.8,3.5,7.7l0,6.4l10.3-11.8c2.1-2.5,2.4-6,0.7-8.8l-5-8.2c-0.2-0.4-0.4-0.8-0.4-1.2l-0.7-7.6
		c-0.2-2-1.1-3.8-2.6-5l-12.1-10c-15.4-12-16.1-23.5-16.1-23.5L168.4,0l-4,5.6c-0.3,0.4-6.3,8.9-5,19.9c-6.2-2.2-10.6-8.1-10.6-8.2
		l-6.3-8.6l2.1,10.5c0,0.2,0.8,3.8,3.1,8.4c-18,1.2-29.9,10.7-30.4,11C104.1,48.3,96.6,60.9,94.8,76c-2.3,19.7,5.8,40.1,13,53.7
		c7.8,14.7,16,24.6,16.3,24.9l13.2,16.9c-5.3-0.4-10.8,0.2-16,1.8l-8.3,2.6l-0.3,0.1c-9.7,4.4-21.4,7.7-31.3,8.7
		c-8.8,0.9-20.7,0.4-27.2-6.7c-8.7-9.5-11.1-21.8-6.3-32.1c0.2-0.4,0.4-0.8,0.5-1.1c4.1-8.2,11.3-14.6,20.1-18.2l7.3-2.9
		c2.8-1.1,5.8-0.9,8.5,0.4l5.7,2.9L84,112.4c-1.2-3-4.3-4.9-7.5-4.6l-9.5,0.8c-0.4,0-0.8,0-1.2-0.2l-7.1-2.8
		c-1.8-0.7-3.9-0.7-5.7,0.1L38.5,112c-17.7,8.3-28.2,3.8-28.3,3.8L4,113l3.2,6.1c0.2,0.4,5.1,9.6,15.5,13.4
		c-4.8,4.6-12,5.8-12.1,5.8L0,140l10.3,2.9c0.2,0.1,3.7,1,8.9,0.9c-7,16.6-4,31.5-3.9,32.1c2.9,16.1,10.7,28.6,23.4,37
		c15.5,10.3,35.7,12.6,50.8,12.6c1,0,2,0,3,0c16.6-0.3,29.1-3.2,29.6-3.3l7.7-1.5c-2.2,4-3.9,8.3-4.8,12.8l-1.7,8.5l0,0.3
		c-0.7,10.6-3.5,22.4-7.3,31.6c-3.4,8.2-9.5,18.4-18.9,20.7c-12.5,3.1-24.5-0.7-31.2-9.8c-0.2-0.3-0.5-0.7-0.7-1
		c-5.2-7.5-7.5-16.9-6.3-26.4l0.9-7.8c0.3-2.9,2-5.6,4.4-7.2l5.2-3.6l-15.6-1.7c-3.2-0.4-6.3,1.4-7.6,4.4l-3.8,8.8
		c-0.2,0.4-0.4,0.7-0.7,1l-5.9,4.9c-1.5,1.3-2.5,3.1-2.6,5l-1.4,15.7c-1.2,19.5-10.1,26.6-10.2,26.7l-5.5,4.1l6.8,0.1
		c0.5,0,10.9,0.1,19.2-7.2c1.7,6.4-0.7,13.3-0.7,13.4l-3.5,10.1l7.4-7.6c0.1-0.1,2.7-2.8,5.1-7.3c11.3,14.1,25.8,18.6,26.3,18.7
		c6.6,2.2,13,3.3,19.2,3.3c8.5,0,16.7-2.1,24.5-6.2c17.5-9.3,29.7-27.5,36.8-41.2c7.6-14.7,11.2-27.1,11.3-27.6l3.4-10.9
		c2.1,5.8,5.4,11.2,9.8,15.7l6.1,6.3l0.2,0.2c8.3,6.6,16.5,15.6,21.8,24c4.8,7.5,9.7,18.3,6.3,27.3c-4.6,12-14.5,19.8-25.8,20.1
		c-0.4,0-0.9,0-1.3,0c-9.1,0-18.1-3.5-25.2-9.8l-5.9-5.2c-2.2-2-3.5-4.8-3.5-7.7l0-6.3l-10.3,11.8c-2.1,2.5-2.4,6-0.7,8.8l5,8.1
		c0.2,0.4,0.4,0.8,0.4,1.2l0.7,7.6c0.2,2,1.1,3.8,2.6,5l12.1,10c15.4,12,16.1,23.5,16.1,23.5l0.3,6.8l4-5.5c0.3-0.4,6.3-8.9,5-19.9
		c6.2,2.2,10.6,8.1,10.6,8.2l6.3,8.6l-2.1-10.5c0-0.2-0.8-3.8-3.1-8.4c18-1.2,29.9-10.6,30.4-11c13.1-9.8,20.7-22.5,22.5-37.5
		c2.3-19.7-5.8-40.1-13-53.7c-7.8-14.7-15.9-24.6-16.2-24.9L213.7,224c5.8,0.6,11.6,0,17.3-1.7l8.3-2.6l0.3-0.1
		c9.7-4.4,21.4-7.7,31.3-8.7c8.8-0.9,20.7-0.4,27.2,6.7c8.7,9.5,11.1,21.8,6.3,32.1c-0.2,0.4-0.4,0.8-0.5,1.1
		c-4.1,8.2-11.3,14.6-20.1,18.2l-7.3,2.9c-2.8,1.1-5.8,1-8.5-0.4l-5.6-2.9l5.9,14.5c1.2,3,4.3,4.9,7.5,4.6l9.5-0.8
		c0.4,0,0.8,0,1.2,0.2l7.1,2.8c0.9,0.4,1.8,0.5,2.7,0.5c1,0,2-0.2,3-0.6l14.4-6.3c17.6-8.3,28.2-3.8,28.3-3.8l6.2,2.8l-3.2-6.1
		C344.8,276.2,339.9,267,329.6,263.2z M192.4,213.4l-19.4,5.2l-14.2-14.2l5.2-19.4l19.4-5.2l14.2,14.2L192.4,213.4z"/>
	<g>
		<path d="M469.1,268.8c1.7,2.2,2.6,5,2.6,8.2c0,4.6-1.8,8.2-5.4,10.7c-3.6,2.5-8.8,3.7-15.7,3.7h-27.3v-52.7h25.8
			c6.4,0,11.4,1.2,14.8,3.7s5.2,5.8,5.2,10c0,2.6-0.6,4.9-1.9,6.9c-1.2,2-3,3.6-5.2,4.8C465.1,264.9,467.4,266.5,469.1,268.8z
			 M435.5,247.9v12.4h12.1c3,0,5.3-0.5,6.9-1.6s2.3-2.6,2.3-4.7s-0.8-3.6-2.3-4.6s-3.8-1.5-6.9-1.5L435.5,247.9L435.5,247.9z
			 M457,280.6c1.6-1,2.5-2.7,2.5-4.9c0-4.4-3.2-6.5-9.7-6.5h-14.2v13h14.2C452.9,282.2,455.4,281.7,457,280.6z"/>
		<path d="M517.2,272.7v18.7H505v-18.8l-20.4-33.9h13l14.1,23.4l14.1-23.4h12L517.2,272.7z"/>
	</g>
</g>
</svg>
